<svg width="16" height="16" viewBox="0 0 16 16" fill="none" xmlns="http://www.w3.org/2000/svg">
<path d="M11.8317 8.88H11.0878L11.2198 5.472L11.6757 3.144H13.4998L13.0437 5.472L11.8317 8.88ZM10.9078 11.664C10.5718 11.664 10.3317 11.6 10.1877 11.472C10.0517 11.336 9.98375 11.168 9.98375 10.968C9.98375 10.928 9.98775 10.88 9.99575 10.824C10.0038 10.76 10.0237 10.64 10.0557 10.464C10.1117 10.184 10.2357 9.96401 10.4277 9.80401C10.6277 9.63601 10.9077 9.552 11.2677 9.552C11.6037 9.552 11.8398 9.62001 11.9757 9.75601C12.1198 9.88401 12.1918 10.048 12.1918 10.248C12.1918 10.28 12.1878 10.328 12.1798 10.392C12.1798 10.456 12.1597 10.576 12.1198 10.752C12.0638 11.024 11.9358 11.244 11.7358 11.412C11.5438 11.58 11.2678 11.664 10.9078 11.664Z" fill="currentColor"/>
<path d="M6.836 12.3L6.572 13.716H5.252C4.772 13.716 4.436 13.62 4.244 13.428C4.052 13.244 3.956 12.98 3.956 12.636C3.956 12.532 3.964 12.428 3.98 12.324C3.996 12.22 4.016 12.112 4.04 12L4.136 11.556C3.736 11.444 3.372 11.256 3.044 10.992C2.724 10.72 2.468 10.36 2.276 9.912C2.092 9.456 2 8.908 2 8.268C2 8.036 2.012 7.812 2.036 7.596C2.06 7.372 2.092 7.152 2.132 6.936C2.244 6.368 2.424 5.848 2.672 5.376C2.928 4.896 3.236 4.48 3.596 4.128C3.964 3.768 4.376 3.492 4.832 3.3C5.296 3.1 5.792 3 6.32 3C6.856 3 7.352 3.12 7.808 3.36C8.264 3.592 8.632 3.96 8.912 4.464C9.192 4.96 9.332 5.604 9.332 6.396C9.332 6.62 9.32 6.844 9.296 7.068C9.272 7.292 9.24 7.512 9.2 7.728C9.096 8.232 8.936 8.704 8.72 9.144C8.512 9.584 8.252 9.976 7.94 10.32C7.628 10.664 7.276 10.948 6.884 11.172C6.5 11.396 6.084 11.544 5.636 11.616L5.504 12.3H6.836ZM6.2 4.548C5.832 4.548 5.504 4.632 5.216 4.8C4.928 4.968 4.688 5.212 4.496 5.532C4.312 5.852 4.172 6.24 4.076 6.696L3.824 7.956C3.8 8.076 3.784 8.188 3.776 8.292C3.768 8.396 3.764 8.492 3.764 8.58C3.764 9.084 3.876 9.468 4.1 9.732C4.332 9.988 4.676 10.116 5.132 10.116C5.508 10.116 5.836 10.032 6.116 9.864C6.404 9.696 6.644 9.452 6.836 9.132C7.028 8.812 7.168 8.424 7.256 7.968L7.508 6.708C7.532 6.588 7.548 6.476 7.556 6.372C7.564 6.26 7.568 6.164 7.568 6.084C7.568 5.58 7.452 5.2 7.22 4.944C6.996 4.68 6.656 4.548 6.2 4.548Z" fill="currentColor"/>
</svg>
