<svg xmlns="http://www.w3.org/2000/svg" width="54" height="12" fill="none" viewBox="0 0 54 12">
  <path fill="currentColor" d="m4.836 9.744-.264 1.416h-1.32q-.72 0-1.008-.288-.288-.276-.288-.792 0-.156.024-.312t.06-.324L2.136 9q-.6-.168-1.092-.564a2.9 2.9 0 0 1-.768-1.08Q0 6.672 0 5.712q0-.348.036-.672.036-.336.096-.66a5.7 5.7 0 0 1 .54-1.56 5 5 0 0 1 .924-1.248q.552-.54 1.236-.828.696-.3 1.488-.3.804 0 1.488.36.684.348 1.104 1.104.42.744.42 1.932 0 .336-.036.672a9 9 0 0 1-.096.66 6 6 0 0 1-.48 1.416q-.312.66-.78 1.176a4.3 4.3 0 0 1-1.056.852q-.576.336-1.248.444l-.132.684zM4.2 1.992q-.552 0-.984.252a2.04 2.04 0 0 0-.72.732 4 4 0 0 0-.42 1.164L1.824 5.4q-.036.18-.048.336t-.012.288q0 .756.336 1.152.348.384 1.032.384.564 0 .984-.252.432-.252.72-.732t.42-1.164l.252-1.26q.036-.18.048-.336a4 4 0 0 0 .012-.288q0-.756-.348-1.14-.336-.396-1.02-.396m4.828.672h1.68l-.744 3.744a5 5 0 0 0-.06.336 2 2 0 0 0-.024.3q0 .3.144.48t.444.18a1 1 0 0 0 .552-.156q.252-.168.456-.42t.348-.552q.156-.312.228-.672l.648-3.24h1.68l-.996 4.956h.708l-.264 1.344h-1.116q-.444 0-.756-.24-.3-.24-.3-.684a2 2 0 0 1 .036-.36l.036-.18h-.072q-.348.732-.828 1.176-.48.432-1.2.432-.708 0-1.104-.432-.384-.432-.384-1.2 0-.24.024-.456.036-.216.084-.456zm8.04-.696q-.444 0-.66-.168a.56.56 0 0 1-.204-.456q0-.108.024-.24a6 6 0 0 1 .048-.24q.084-.312.312-.588.24-.276.84-.276.444 0 .648.168a.55.55 0 0 1 .216.456q0 .108-.024.24a6 6 0 0 1-.048.24 1.5 1.5 0 0 1-.324.588q-.228.276-.828.276m.132 6.996h-1.092q-.48 0-.78-.264a.88.88 0 0 1-.3-.696q0-.072.012-.144l.024-.156 1.008-5.04h1.68l-.996 4.956h.708zm5.834 0h-5.1l.264-1.344 3.672-3.612h-2.892l.264-1.344h4.908l-.264 1.344-3.684 3.612h3.096zm3.11-2.64H25.4l.132-3.408.456-2.328h1.824l-.456 2.328zm-.924 2.784q-.504 0-.72-.192a.69.69 0 0 1-.204-.504q0-.06.012-.144.012-.096.06-.36.084-.42.372-.66.3-.252.84-.252.504 0 .708.204a.63.63 0 0 1 .216.492q0 .048-.012.144 0 .096-.06.36a1.13 1.13 0 0 1-.384.66q-.288.252-.828.252m11.638-.144h-1.116q-.444 0-.756-.24-.3-.24-.3-.684a2 2 0 0 1 .036-.36l.036-.18h-.072q-.372.768-.84 1.188t-1.212.42q-.588 0-.96-.276a1.7 1.7 0 0 1-.552-.78 3.6 3.6 0 0 1-.168-1.128q0-.384.036-.72.036-.348.096-.672.192-.936.6-1.608t.972-1.032a2.2 2.2 0 0 1 1.224-.372q.66 0 1.08.36.432.36.492.876h.06l.216-1.092h1.68l-.996 4.956h.708zm-3.396-1.236q.324 0 .588-.168.264-.18.456-.408.204-.24.348-.564.156-.336.228-.684l.192-.96a.83.83 0 0 0-.048-.528.8.8 0 0 0-.348-.372 1.1 1.1 0 0 0-.588-.144q-.552 0-.9.348-.336.348-.48 1.056l-.168.84q-.024.12-.048.336a3 3 0 0 0-.024.348q0 .276.096.48t.276.312a.8.8 0 0 0 .42.108m6.213 1.236h-1.74l1.68-8.376h3.157q1.247 0 1.944.588.695.588.695 1.656 0 .912-.42 1.608T43.84 5.52q-.734.384-1.68.384h-1.872zm1.369-6.84L40.6 4.368h1.788q.408 0 .708-.216t.384-.66l.06-.312a2 2 0 0 0 .047-.24 1 1 0 0 0 .024-.168.6.6 0 0 0-.191-.456q-.18-.192-.577-.192zm6.272 6.84h-1.74l1.68-8.376h3.156q1.248 0 1.944.588t.696 1.656q0 .912-.42 1.608T51.48 5.52t-1.68.384h-1.872zm1.368-6.84-.444 2.244h1.788q.408 0 .708-.216t.384-.66l.06-.312a2 2 0 0 0 .048-.24 1 1 0 0 0 .024-.168.6.6 0 0 0-.192-.456q-.18-.192-.576-.192zm4.063 6.972q-.504 0-.708-.228a.73.73 0 0 1-.204-.492q0-.096.024-.264l.06-.288q.072-.396.36-.636.3-.252.804-.252t.708.228a.73.73 0 0 1 .204.492q0 .096-.036.264-.024.156-.048.288a1.07 1.07 0 0 1-.372.648q-.288.24-.792.24"/>
</svg>
