<svg xmlns="http://www.w3.org/2000/svg" width="16" height="16" fill="none" viewBox="0 0 16 16">
  <rect width="16" height="16" fill="#fff" rx="4"/>
  <path fill="#000" d="M11.83 10.378h-.743l.132-3.408.456-2.328h1.824l-.456 2.328zm-.923 2.784q-.504 0-.72-.192a.69.69 0 0 1-.204-.504q0-.06.012-.144.012-.096.06-.36.084-.42.372-.66.3-.252.84-.252.504 0 .708.204a.63.63 0 0 1 .216.492q0 .048-.012.144 0 .096-.06.36a1.13 1.13 0 0 1-.384.66q-.288.252-.828.252M7.819 11.942l-.264 1.416h-1.32q-.72 0-1.008-.288-.288-.276-.288-.792 0-.156.024-.312t.06-.324l.096-.444q-.6-.168-1.092-.564a2.9 2.9 0 0 1-.768-1.08q-.276-.684-.276-1.644 0-.348.036-.672.036-.336.096-.66a5.7 5.7 0 0 1 .54-1.56 5 5 0 0 1 .924-1.248q.552-.54 1.236-.828.696-.3 1.488-.3.804 0 1.488.36.684.348 1.104 1.104.42.744.42 1.932 0 .336-.036.672a9 9 0 0 1-.096.66 6 6 0 0 1-.48 1.416q-.312.66-.78 1.176a4.3 4.3 0 0 1-1.056.852q-.576.336-1.248.444l-.132.684zM7.183 4.19q-.552 0-.984.252a2.04 2.04 0 0 0-.72.732 4 4 0 0 0-.42 1.164l-.252 1.26q-.036.18-.048.336t-.012.288q0 .756.336 1.152.348.384 1.032.384.564 0 .984-.252.432-.252.72-.732t.42-1.164l.252-1.26q.036-.18.048-.336a4 4 0 0 0 .012-.288q0-.756-.348-1.14-.336-.396-1.02-.396"/>
</svg>
